<svg xmlns="http://www.w3.org/2000/svg" width="66.464" height="12.61" viewBox="0 0 66.464 12.61">
  <g id="Gruppe_474" data-name="Gruppe 474" transform="translate(-290.97 -15.636)">
    <g id="Icon">
      <path id="Pfad_20" data-name="Pfad 20" d="M355.661,26.773V25.689h.793a.982.982,0,0,0,.98-.982V19.9a.982.982,0,0,0-.98-.981h-.793V17.839a1.473,1.473,0,0,0-1.47-1.473H340.427a1.473,1.473,0,0,0-1.47,1.473v8.934a1.473,1.473,0,0,0,1.47,1.473h13.764a1.473,1.473,0,0,0,1.47-1.473Zm-15.234-8.934h13.764v8.934H340.427V17.839Z" fill="#f5f5f5" fill-rule="evenodd"/>
      <path id="Pfad_21" data-name="Pfad 21" d="M350.476,18.755V25.85h-9.06V18.755Z" fill="#f5f5f5" fill-rule="evenodd"/>
    </g>
    <g id="Icon-2" data-name="Icon">
      <path id="Pfad_22" data-name="Pfad 22" d="M290.97,22.528h2.646v5.566H290.97V22.528Z" fill="#f5f5f5" fill-rule="evenodd"/>
      <path id="Pfad_23" data-name="Pfad 23" d="M295.469,20.673h2.911v7.422h-2.911V20.673Z" fill="#f5f5f5" fill-rule="evenodd"/>
      <path id="Pfad_24" data-name="Pfad 24" d="M300.233,18.287h2.646v9.807h-2.646V18.287Z" fill="#f5f5f5" fill-rule="evenodd"/>
      <path id="Pfad_25" data-name="Pfad 25" d="M304.732,15.636h2.646V28.094h-2.646V15.636Z" fill="#f5f5f5" fill-rule="evenodd"/>
    </g>
    <g id="Icon-3" data-name="Icon">
      <path id="Pfad_26" data-name="Pfad 26" d="M321.861,16.333l.547.014.543.042.543.07.534.094.525.122.516.15.507.174.5.207.489.225.48.249.463.282.458.3.436.324.427.352.414.376.4.394.049.061.022.075.013.075-.013.075-.022.075-.049.061-.062.052-.067.028-.076.009-.071-.009-.067-.028-.062-.052-.378-.376-.391-.352-.4-.329-.418-.31-.431-.286-.44-.268-.454-.235-.462-.216-.476-.192-.48-.164-.489-.141-.5-.122-.5-.089-.507-.066-.52-.038-.52-.014-.52.014-.516.038-.511.066-.5.089-.5.122-.494.141-.48.164-.471.192-.462.216-.454.235-.44.268-.431.286-.418.31-.4.329-.391.352-.374.376-.058.052-.076.028-.071.009-.071-.009-.071-.028-.058-.052-.044-.061-.031-.075L314,19.92l.009-.075.031-.07.044-.066.4-.394.414-.376.427-.352.44-.324.454-.3.467-.282.476-.249.489-.225.5-.207.507-.174.52-.15.525-.122.529-.094.538-.07.542-.042.552-.014Z" fill="#f5f5f5" fill-rule="evenodd"/>
      <path id="Pfad_27" data-name="Pfad 27" d="M321.858,18.924l.44.014.431.031.436.054.431.081.427.1.423.121.414.144.409.171.409.189.392.216.387.238.374.256.365.283.348.3.343.328.044.063.031.067.009.076-.009.072-.031.067-.044.063-.062.045-.066.031-.07.009-.071-.009-.075-.031-.062-.045-.326-.314-.339-.292-.352-.274-.365-.243-.374-.225-.379-.2-.4-.184-.4-.157-.4-.135-.409-.108-.418-.09-.414-.067-.418-.049-.422-.018h-.418l-.427.018-.418.049-.418.067-.414.09-.4.108-.409.135-.4.157-.387.184-.383.2-.379.225-.361.243-.352.274-.343.292-.326.314-.062.045-.066.031-.07.009-.075-.009-.066-.031-.062-.045-.044-.063-.026-.067-.009-.072.009-.076.026-.067.044-.063.339-.328.357-.3.361-.283.374-.256.387-.238.4-.216.4-.189.414-.171.414-.144.422-.121.427-.1.436-.081.431-.054.436-.031.436-.014Z" fill="#f5f5f5" fill-rule="evenodd"/>
      <path id="Pfad_28" data-name="Pfad 28" d="M321.863,21.084l.376.01.363.04.363.06.359.09.35.115.346.135.333.16.324.18.315.205.307.226.294.251.285.276.268.291.047.07.026.075.009.08-.009.085-.026.075-.047.07-.056.055-.069.03-.069.01-.069-.01-.069-.03-.056-.055-.268-.291-.281-.261-.29-.246-.307-.221-.315-.19-.324-.17-.333-.145-.346-.115-.346-.1-.359-.065-.359-.045-.367-.01-.367.01-.363.045-.35.065-.354.1-.337.115-.337.145-.324.17-.315.19-.3.221-.294.246-.281.261-.264.291-.06.055-.065.03-.074.01-.069-.01-.065-.03-.061-.055-.047-.07-.03-.075-.009-.085.009-.08.03-.075.047-.07.268-.291.281-.276.3-.251.307-.226.315-.205.328-.18.333-.16.341-.135.354-.115.359-.09.359-.06.367-.04.372-.01Z" fill="#f5f5f5" fill-rule="evenodd"/>
      <path id="Pfad_29" data-name="Pfad 29" d="M321.863,24.269l-.179.014-.169.041-.166.07-.145.088-.137.116-.12.134-.1.153-.078.162-.062.185-.042.186-.012.2.012.2.042.19.062.176.078.172.1.148.12.13.137.115.145.093.166.069.169.042.179.014.182-.014.17-.042.157-.069.153-.093.133-.115.12-.13.1-.148.087-.172.062-.176.033-.19.016-.2-.016-.2-.033-.186-.062-.185-.087-.162-.1-.153-.12-.134-.133-.116-.153-.088-.157-.07-.17-.041-.182-.014Zm0-.593.219.013.211.042.2.074.191.1.178.12.162.144.145.157.128.186.108.194.087.209.062.227.041.231.013.246-.013.245-.041.232-.062.222-.087.214-.108.2-.128.176-.145.162-.162.144-.178.12-.191.1-.2.075-.211.046-.219.014-.22-.014-.207-.046-.207-.075-.187-.1-.178-.12-.161-.144-.145-.162-.129-.176-.108-.2-.087-.214-.066-.222-.041-.232-.013-.245.013-.246.041-.231.066-.227.087-.209.108-.194.129-.186.145-.157.161-.144.178-.12.187-.1.207-.074.207-.042.22-.013Z" fill="#f5f5f5" fill-rule="evenodd"/>
    </g>
  </g>
</svg>
